D:\school\WTK\thesis\model\3dpredictsim\Results\batch_windlass\Pog_s1_tmt_aCst_d05_k500_WL30_ig24_pas_GRF.mot
nRows=12
nColumns=19

name D:\school\WTK\thesis\model\3dpredictsim\Results\batch_windlass\Pog_s1_tmt_aCst_d05_k500_WL30_ig24_pas_GRF.mot
datacolumns 19
datarows 12
range 0.5469299036 0.6672544824
endheader
time 	ground_force_vx	ground_force_vy	ground_force_vz	ground_force_px	ground_force_py	ground_force_pz	1_ground_force_vx	1_ground_force_vy	1_ground_force_vz	1_ground_force_px	1_ground_force_py	1_ground_force_pz	ground_torque_x	ground_torque_y	ground_torque_z	1_ground_torque_x	1_ground_torque_y	1_ground_torque_z
        0.5469299036	       82.2020361264	      411.4914129755	        3.8679990309	        0.3497210770	        0.0000000000	        0.0334291422	      -99.5965758395	       77.9679022955	      -29.0641880857	        0.8233749236	        0.0000000000	       -0.0427825588	        0.0000000000	        0.0000000000	        0.0000000000	        0.0000000000	        0.0000000000	        0.0000000000	
        0.5578685016	       53.9895336931	      314.1002897073	       12.1093336718	        0.3567595621	        0.0000000000	        0.0306022207	     -150.4391512675	      160.8560838748	      -66.5078653709	        0.8336505546	        0.0000000000	       -0.0414268388	        0.0000000000	        0.0000000000	        0.0000000000	        0.0000000000	        0.0000000000	        0.0000000000	
        0.5688070997	       25.6543234188	      216.6061481867	       13.7748526973	        0.3681762572	        0.0000000000	        0.0250473954	      -69.9041497717	      362.3835496486	      -25.5218235970	        0.8477420418	        0.0000000000	       -0.0420911133	        0.0000000000	        0.0000000000	        0.0000000000	        0.0000000000	        0.0000000000	        0.0000000000	
        0.5797456978	        8.8077421190	      161.8273622674	       13.5866036865	        0.3768730535	        0.0000000000	        0.0199966087	      -72.2440003287	      611.3766631756	        4.6623083152	        0.8561180948	        0.0000000000	       -0.0437872588	        0.0000000000	        0.0000000000	        0.0000000000	        0.0000000000	        0.0000000000	        0.0000000000	
        0.5906842959	        2.4864464927	      127.1534815859	       12.2427845618	        0.3768001664	        0.0000000000	        0.0200701351	      -92.7110372307	      791.0441094236	       13.3062814244	        0.8622461010	        0.0000000000	       -0.0447096098	        0.0000000000	        0.0000000000	        0.0000000000	        0.0000000000	        0.0000000000	        0.0000000000	
        0.6016228939	       -3.6739900395	       84.7298056624	       10.2072471748	        0.3769300384	        0.0000000000	        0.0200403354	     -116.1130381859	      883.1592642521	       17.5435772996	        0.8690745844	        0.0000000000	       -0.0449408285	        0.0000000000	        0.0000000000	        0.0000000000	        0.0000000000	        0.0000000000	        0.0000000000	
        0.6125614920	      -12.0379891952	       34.9084307821	        5.4510675932	        0.3757837835	        0.0000000000	        0.0199538566	     -123.4468286979	      925.8243102557	       16.6908641824	        0.8765795731	        0.0000000000	       -0.0445765814	        0.0000000000	        0.0000000000	        0.0000000000	        0.0000000000	        0.0000000000	        0.0000000000	
        0.6235000901	        0.1180437716	       -0.1169089332	       -0.0015427511	        0.0000000000	        0.0000000000	        0.0000000000	     -119.5971585312	      907.8213857256	       15.1185457464	        0.8822023437	        0.0000000000	       -0.0440753144	        0.0000000000	        0.0000000000	        0.0000000000	        0.0000000000	        0.0000000000	        0.0000000000	
        0.6344386881	        0.0002915731	       -0.0002393250	        0.0000127376	        0.0000000000	        0.0000000000	        0.0000000000	     -102.1552898573	      853.2038271281	       14.8334917964	        0.8858222684	        0.0000000000	       -0.0436812318	        0.0000000000	        0.0000000000	        0.0000000000	        0.0000000000	        0.0000000000	        0.0000000000	
        0.6453772862	        0.0000827579	       -0.0000591578	        0.0000048935	        0.0000000000	        0.0000000000	        0.0000000000	      -85.7995997576	      792.8065056934	       15.3757466406	        0.8890936630	        0.0000000000	       -0.0434221652	        0.0000000000	        0.0000000000	        0.0000000000	        0.0000000000	        0.0000000000	        0.0000000000	
        0.6563158843	        0.0003649273	       -0.0002345278	        0.0000245289	        0.0000000000	        0.0000000000	        0.0000000000	      -72.3340333945	      740.9667984643	       15.5427415735	        0.8922678647	        0.0000000000	       -0.0432797507	        0.0000000000	        0.0000000000	        0.0000000000	        0.0000000000	        0.0000000000	        0.0000000000	
        0.6672544824	        0.0069156623	       -0.0040849937	        0.0005015357	        0.0000000000	        0.0000000000	        0.0000000000	      -60.4770823672	      699.1245276377	       16.2755472631	        0.8955035531	        0.0000000000	       -0.0432157007	        0.0000000000	        0.0000000000	        0.0000000000	        0.0000000000	        0.0000000000	        0.0000000000	
